<svg xmlns="http://www.w3.org/2000/svg" width="249" height="70" fill="none"><path fill="#000" d="M22.632 69.344c-6.912 0-12.416-1.888-16.512-5.664C2.088 59.904.072 54.624.072 47.84v-6.336h12.672v6.336c0 3.008.832 5.376 2.496 7.104 1.664 1.664 4 2.496 7.008 2.496 2.816 0 4.992-.832 6.528-2.496 1.6-1.664 2.4-4.032 2.4-7.104V12.32h-11.52V.8h31.872v11.52h-7.68v35.52c0 6.976-1.888 12.32-5.664 16.032-3.776 3.648-8.96 5.472-15.552 5.472Zm52.921 0c-4.736 0-8.992-.96-12.767-2.88-3.776-1.92-6.753-4.704-8.928-8.352-2.176-3.648-3.264-8.032-3.264-13.152v-1.536c0-5.12 1.087-9.504 3.264-13.152 2.175-3.648 5.152-6.432 8.928-8.352 3.775-1.92 8.031-2.88 12.767-2.88 4.737 0 8.993.96 12.769 2.88 3.775 1.92 6.751 4.704 8.927 8.352 2.177 3.648 3.265 8.032 3.265 13.152v1.536c0 5.12-1.088 9.504-3.264 13.152-2.177 3.648-5.153 6.432-8.928 8.352-3.776 1.92-8.032 2.88-12.769 2.88Zm0-10.752c3.713 0 6.785-1.184 9.216-3.552 2.432-2.432 3.648-5.888 3.648-10.368v-.96c0-4.48-1.216-7.904-3.648-10.272-2.368-2.432-5.44-3.648-9.216-3.648-3.712 0-6.784 1.216-9.215 3.648-2.432 2.368-3.648 5.792-3.648 10.272v.96c0 4.48 1.216 7.936 3.648 10.368 2.431 2.368 5.504 3.552 9.216 3.552ZM105.92 68V20.384h11.904v6.24h1.728c.768-1.664 2.208-3.232 4.32-4.704 2.112-1.536 5.312-2.304 9.6-2.304 3.712 0 6.944.864 9.696 2.592 2.816 1.664 4.992 4 6.528 7.008 1.536 2.944 2.304 6.4 2.304 10.368V68h-12.096V40.544c0-3.584-.896-6.272-2.688-8.064-1.728-1.792-4.224-2.688-7.488-2.688-3.712 0-6.592 1.248-8.64 3.744-2.048 2.432-3.072 5.856-3.072 10.272V68h-12.096Zm68.18 1.344c-3.392 0-6.432-.576-9.12-1.728-2.688-1.216-4.832-2.944-6.432-5.184-1.536-2.304-2.304-5.088-2.304-8.352 0-3.264.768-5.984 2.304-8.16 1.6-2.24 3.776-3.904 6.528-4.992 2.816-1.152 6.016-1.728 9.6-1.728h13.056v-2.688c0-2.24-.704-4.064-2.112-5.472-1.408-1.472-3.648-2.208-6.72-2.208-3.008 0-5.248.704-6.72 2.112-1.472 1.344-2.432 3.104-2.88 5.28l-11.136-3.744a19.23 19.23 0 0 1 3.648-6.624c1.728-2.048 4-3.68 6.816-4.896 2.88-1.28 6.368-1.92 10.464-1.92 6.272 0 11.232 1.568 14.88 4.704 3.648 3.136 5.472 7.68 5.472 13.632v17.76c0 1.92.896 2.88 2.688 2.88h3.84V68h-8.064c-2.368 0-4.32-.576-5.856-1.728-1.536-1.152-2.304-2.688-2.304-4.608v-.096h-1.824c-.256.768-.832 1.792-1.728 3.072-.896 1.216-2.304 2.304-4.224 3.264-1.92.96-4.544 1.44-7.872 1.44Zm2.112-9.792c3.392 0 6.144-.928 8.256-2.784 2.176-1.92 3.264-4.448 3.264-7.584v-.96h-12.192c-2.24 0-4 .48-5.28 1.44-1.28.96-1.92 2.304-1.92 4.032 0 1.728.672 3.136 2.016 4.224 1.344 1.088 3.296 1.632 5.856 1.632Zm52.245 9.792c-6.208 0-11.296-1.344-15.264-4.032-3.968-2.688-6.368-6.528-7.2-11.52l11.136-2.88c.448 2.24 1.184 4 2.208 5.28a9.452 9.452 0 0 0 3.936 2.784c1.6.512 3.328.768 5.184.768 2.816 0 4.896-.48 6.24-1.44 1.344-1.024 2.016-2.272 2.016-3.744 0-1.472-.64-2.592-1.92-3.36-1.28-.832-3.328-1.504-6.144-2.016l-2.688-.48c-3.328-.64-6.368-1.504-9.12-2.592-2.752-1.152-4.96-2.72-6.624-4.704-1.664-1.984-2.496-4.544-2.496-7.68 0-4.736 1.728-8.352 5.184-10.848 3.456-2.56 8-3.84 13.632-3.84 5.312 0 9.728 1.184 13.248 3.552 3.52 2.368 5.824 5.472 6.912 9.312l-11.232 3.456c-.512-2.432-1.568-4.16-3.168-5.184-1.536-1.024-3.456-1.536-5.76-1.536s-4.064.416-5.28 1.248c-1.216.768-1.824 1.856-1.824 3.264 0 1.536.64 2.688 1.92 3.456 1.28.704 3.008 1.248 5.184 1.632l2.688.48c3.584.64 6.816 1.504 9.696 2.592 2.944 1.024 5.248 2.528 6.912 4.512 1.728 1.92 2.592 4.544 2.592 7.872 0 4.992-1.824 8.864-5.472 11.616-3.584 2.688-8.416 4.032-14.496 4.032Z"/></svg>