<svg xmlns="http://www.w3.org/2000/svg" width="467" height="62" fill="none"><path fill="#000" d="M41.946 1.632v1.824c-1.15.256-2.158.64-3.022 1.152-.863.448-1.726 1.12-2.59 2.016-.863.896-1.918 2.144-3.166 3.744L18.708 29.664l2.878-4.608L37.7 52.224c.816 1.408 1.68 2.592 2.59 3.552.912.96 1.92 1.728 3.022 2.304V60c-1.15-.128-2.494-.192-4.029-.192a94.51 94.51 0 0 0-4.029-.096c-.96 0-2.206.032-3.741.096-1.487 0-3.286.064-5.396.192v-1.92c2.494-.128 3.86-.512 4.1-1.152.288-.704.049-1.76-.719-3.168L19.93 36c-.958-1.792-1.966-3.072-3.021-3.84-1.055-.832-2.614-1.28-4.677-1.344v-1.632c1.631-.128 3.19-.576 4.677-1.344 1.535-.832 3.286-2.528 5.252-5.088l8.562-11.712c.768-.96 1.295-1.888 1.583-2.784.288-.896.336-1.696.144-2.4-.144-.704-.576-1.248-1.295-1.632-.672-.448-1.607-.704-2.806-.768V1.632c1.295.064 2.71.128 4.245.192 1.583.064 2.998.096 4.245.096.96 0 1.87-.032 2.734-.096a97.362 97.362 0 0 0 2.374-.192Zm-23.599 0v1.92c-1.63.064-2.878.32-3.741.768-.816.384-1.367 1.152-1.655 2.304-.288 1.088-.432 2.816-.432 5.184v38.016c0 2.304.144 4.032.432 5.184.288 1.152.84 1.92 1.655 2.304.863.384 2.11.64 3.741.768V60c-1.103-.128-2.494-.192-4.173-.192-1.63-.064-3.286-.096-4.965-.096-1.87 0-3.621.032-5.252.096-1.63 0-2.95.064-3.957.192v-1.92c1.63-.128 2.854-.384 3.67-.768.863-.384 1.438-1.152 1.726-2.304.288-1.152.432-2.88.432-5.184V11.808c0-2.368-.144-4.096-.432-5.184-.288-1.152-.863-1.92-1.727-2.304-.815-.448-2.038-.704-3.669-.768v-1.92c1.007.064 2.326.128 3.957.192 1.631.064 3.382.096 5.252.096 1.68 0 3.334-.032 4.965-.096 1.679-.064 3.07-.128 4.173-.192ZM44.198 1.632c1.007.064 2.326.128 3.957.192 1.631.064 3.238.096 4.82.096 2.111 0 4.126-.032 6.044-.096 1.967-.064 3.334-.096 4.102-.096 5.564 0 9.713 1.376 12.447 4.128 2.782 2.752 4.173 6.208 4.173 10.368 0 1.728-.288 3.52-.864 5.376-.527 1.792-1.438 3.488-2.734 5.088-1.295 1.6-3.07 2.944-5.324 4.032s-5.108 1.728-8.562 1.92l-6.907.384v-1.92h6.188c3.022 0 5.324-.608 6.907-1.824 1.583-1.216 2.662-2.88 3.238-4.992.575-2.112.863-4.448.863-7.008 0-4.48-.84-7.872-2.518-10.176-1.68-2.368-4.581-3.552-8.706-3.552-1.919 0-3.166.544-3.742 1.632-.575 1.088-.863 3.296-.863 6.624v38.016c0 2.304.144 4.032.432 5.184.288 1.152.84 1.92 1.655 2.304.863.384 2.11.64 3.741.768V60c-1.103-.128-2.494-.192-4.173-.192-1.63-.064-3.286-.096-4.965-.096-1.87 0-3.62.032-5.252.096-1.63 0-2.95.064-3.957.192v-1.92c1.63-.128 2.854-.384 3.67-.768.863-.384 1.438-1.152 1.726-2.304.288-1.152.432-2.88.432-5.184V11.808c0-2.368-.144-4.128-.432-5.28-.288-1.152-.863-1.92-1.727-2.304-.815-.384-2.038-.608-3.669-.672v-1.92Zm11.944 30.24c2.59.128 4.556.224 5.9.288 1.39.064 2.494.128 3.309.192.816 0 1.655.096 2.518.288 2.35.448 4.317 1.408 5.9 2.88 1.583 1.472 2.686 4 3.31 7.584l1.583 8.736c.383 2.24.791 3.84 1.223 4.8.48.896 1.079 1.344 1.798 1.344.672 0 1.343-.32 2.015-.96a15.76 15.76 0 0 0 1.943-2.304l1.007 1.248c-.864 1.6-1.87 2.912-3.022 3.936-1.151.96-2.59 1.44-4.317 1.44-2.35 0-4.077-.736-5.18-2.208a13.212 13.212 0 0 1-2.23-5.088l-2.231-12c-.672-3.776-1.727-6.208-3.166-7.296-1.39-1.152-3.285-1.728-5.684-1.728h-4.676v-1.152ZM128.248 1.632v1.92c-1.631.064-2.878.384-3.741.96-.816.576-1.367 1.504-1.655 2.784-.288 1.28-.432 3.104-.432 5.472v21.216c0 4.288-.216 8-.647 11.136-.432 3.136-1.2 5.888-2.303 8.256-1.103 2.368-2.758 4.288-4.964 5.76-2.159 1.472-4.653 2.208-7.483 2.208-2.158 0-4.221-.32-6.188-.96-1.966-.576-3.693-1.664-5.18-3.264-1.391-1.728-2.494-3.552-3.31-5.472-.767-1.92-1.295-4.256-1.582-7.008-.288-2.752-.432-6.208-.432-10.368V11.808c0-2.368-.144-4.096-.432-5.184-.288-1.152-.863-1.92-1.727-2.304-.815-.448-2.038-.704-3.67-.768v-1.92c1.008.064 2.327.128 3.958.192 1.631.064 3.382.096 5.252.096 1.68 0 3.334-.032 4.965-.096 1.679-.064 3.07-.128 4.173-.192v1.92c-1.631.064-2.878.32-3.741.768-.816.384-1.367 1.152-1.655 2.304-.288 1.088-.432 2.816-.432 5.184v24.096c0 3.072.096 5.952.288 8.64.24 2.624.72 4.96 1.439 7.008.72 1.984 1.775 3.552 3.166 4.704 1.439 1.152 3.357 1.728 5.756 1.728 3.453 0 6.115-.992 7.986-2.976 1.918-1.984 3.238-4.704 3.957-8.16.768-3.52 1.151-7.456 1.151-11.808V12.768c0-2.368-.216-4.192-.647-5.472-.384-1.28-1.056-2.208-2.015-2.784-.959-.576-2.254-.896-3.885-.96v-1.92c.863.064 1.99.128 3.381.192 1.439.064 2.759.096 3.958.096 1.247 0 2.47-.032 3.669-.096a99.258 99.258 0 0 0 3.022-.192ZM152.088.288c1.727 0 3.237.288 4.533.864a13.142 13.142 0 0 1 3.525 2.304 39.16 39.16 0 0 1 3.022 3.072c1.823 2.048 2.902.416 3.238-4.896h1.654c-.095 2.176-.167 4.8-.215 7.872a825.812 825.812 0 0 0-.072 12.288h-1.655c-.336-2.368-.672-4.256-1.007-5.664-.288-1.408-.648-2.592-1.08-3.552a18.096 18.096 0 0 0-1.511-3.072c-1.343-2.432-2.95-4.256-4.82-5.472-1.871-1.216-3.837-1.824-5.9-1.824-4.221 0-7.603 2.56-10.145 7.68-2.542 5.12-3.813 12.16-3.813 21.12 0 6.144.647 11.328 1.942 15.552 1.296 4.224 3.022 7.424 5.181 9.6 2.206 2.176 4.653 3.264 7.339 3.264 2.062 0 4.077-.608 6.043-1.824 1.967-1.216 3.622-3.04 4.965-5.472a19.235 19.235 0 0 0 2.086-5.28c.48-1.92.888-4.576 1.223-7.968h1.655c0 5.312.024 9.6.072 12.864.048 3.264.12 6.016.216 8.256h-1.655c-.192-2.752-.551-4.512-1.079-5.28-.48-.832-1.199-.704-2.158.384a30.382 30.382 0 0 1-4.893 4.416c-1.775 1.216-4.029 1.824-6.763 1.824-4.269 0-8.01-1.152-11.224-3.456-3.214-2.368-5.708-5.792-7.483-10.272-1.775-4.48-2.662-9.888-2.662-16.224 0-6.208.911-11.648 2.734-16.32 1.823-4.672 4.341-8.288 7.555-10.848C144.197 1.6 147.915.288 152.088.288ZM215.085 1.632v1.824c-1.151.256-2.159.64-3.022 1.152-.864.448-1.727 1.12-2.59 2.016-.864.896-1.919 2.144-3.166 3.744l-14.462 19.296 2.878-4.608 16.117 27.168c.815 1.408 1.679 2.592 2.59 3.552.911.96 1.919 1.728 3.022 2.304V60c-1.151-.128-2.494-.192-4.029-.192a94.523 94.523 0 0 0-4.03-.096c-.959 0-2.206.032-3.741.096-1.487 0-3.286.064-5.396.192v-1.92c2.494-.128 3.861-.512 4.101-1.152.288-.704.048-1.76-.719-3.168L193.068 36c-.959-1.792-1.966-3.072-3.022-3.84-1.055-.832-2.614-1.28-4.676-1.344v-1.632a12.166 12.166 0 0 0 4.676-1.344c1.535-.832 3.286-2.528 5.253-5.088l8.562-11.712c.767-.96 1.295-1.888 1.583-2.784.287-.896.335-1.696.143-2.4-.143-.704-.575-1.248-1.295-1.632-.671-.448-1.606-.704-2.806-.768V1.632c1.295.064 2.71.128 4.245.192 1.583.064 2.998.096 4.245.096.96 0 1.871-.032 2.734-.096a97.353 97.353 0 0 0 2.375-.192Zm-23.6 0v1.92c-1.63.064-2.877.32-3.741.768-.815.384-1.367 1.152-1.655 2.304-.288 1.088-.431 2.816-.431 5.184v38.016c0 2.304.143 4.032.431 5.184.288 1.152.84 1.92 1.655 2.304.864.384 2.111.64 3.741.768V60c-1.103-.128-2.494-.192-4.173-.192-1.63-.064-3.285-.096-4.964-.096-1.871 0-3.621.032-5.252.096-1.631 0-2.95.064-3.958.192v-1.92c1.631-.128 2.854-.384 3.67-.768.863-.384 1.439-1.152 1.727-2.304.287-1.152.431-2.88.431-5.184V11.808c0-2.368-.144-4.096-.431-5.184-.288-1.152-.864-1.92-1.727-2.304-.816-.448-2.039-.704-3.67-.768v-1.92c1.008.064 2.327.128 3.958.192 1.631.064 3.381.096 5.252.096 1.679 0 3.334-.032 4.964-.096 1.679-.064 3.07-.128 4.173-.192ZM251.8 1.632a137.242 137.242 0 0 0-.432 5.952 190.24 190.24 0 0 0-.072 4.416c0 1.152.024 2.272.072 3.36.048 1.024.096 1.888.144 2.592h-1.655c-.335-5.312-1.175-8.992-2.518-11.04-1.295-2.048-3.429-3.072-6.403-3.072h-5.253c-1.63 0-2.877.192-3.741.576-.815.32-1.367 1.056-1.655 2.208-.287 1.088-.431 2.816-.431 5.184v38.016c0 2.304.144 4.032.431 5.184.288 1.152.84 1.92 1.655 2.304.864.32 2.111.48 3.741.48h5.253c2.35 0 4.221-.48 5.612-1.44 1.439-1.024 2.518-2.72 3.237-5.088.768-2.368 1.272-5.536 1.511-9.504h1.655c-.144 1.728-.216 4.032-.216 6.912 0 1.088.024 2.688.072 4.8.096 2.112.24 4.288.432 6.528-2.35-.128-4.988-.192-7.914-.192-2.926-.064-5.54-.096-7.843-.096h-5.54c-2.302 0-4.748.032-7.339.096-2.542 0-4.964.064-7.267.192v-1.92c1.631-.128 2.854-.384 3.67-.768.863-.384 1.439-1.152 1.727-2.304.287-1.152.431-2.88.431-5.184V11.808c0-2.368-.144-4.096-.431-5.184-.288-1.152-.864-1.92-1.727-2.304-.816-.448-2.039-.704-3.67-.768v-1.92c2.303.064 4.725.128 7.267.192 2.591.064 5.037.096 7.339.096h12.663c2.686-.064 5.085-.16 7.195-.288Zm-10.433 28.032v1.92h-13.67v-1.92h13.67Zm2.087-9.792c-.192 2.944-.288 5.152-.288 6.624.048 1.472.072 2.848.072 4.128 0 1.28.024 2.656.072 4.128.048 1.472.168 3.68.36 6.624h-1.655a34.812 34.812 0 0 0-.719-4.608c-.336-1.472-.912-2.688-1.727-3.648-.816-1.024-2.063-1.536-3.742-1.536v-1.92c1.679 0 2.902-.576 3.67-1.728.815-1.152 1.367-2.496 1.655-4.032.287-1.536.503-2.88.647-4.032h1.655ZM300.993 1.632v1.92c-1.63.064-2.877.384-3.741.96-.815.576-1.367 1.504-1.655 2.784-.287 1.28-.431 3.104-.431 5.472V60.48h-1.655l-28.78-53.184v41.568c0 2.304.144 4.128.432 5.472.336 1.28.959 2.208 1.871 2.784.959.512 2.374.832 4.245.96V60c-.864-.128-1.991-.192-3.382-.192a86.282 86.282 0 0 0-3.957-.096c-1.199 0-2.423.032-3.67.096-1.199 0-2.206.064-3.021.192v-1.92c1.63-.128 2.853-.448 3.669-.96.863-.576 1.439-1.504 1.727-2.784.287-1.344.431-3.168.431-5.472V11.808c0-2.368-.144-4.096-.431-5.184-.288-1.152-.864-1.92-1.727-2.304-.816-.448-2.039-.704-3.669-.768v-1.92c.815.064 1.822.128 3.021.192 1.247.064 2.471.096 3.67.096 1.199 0 2.374-.032 3.525-.096 1.151-.064 2.183-.128 3.094-.192l22.952 42.624V12.768c0-2.368-.168-4.192-.504-5.472-.288-1.28-.911-2.208-1.871-2.784-.911-.576-2.302-.896-4.173-.96v-1.92c.864.064 1.991.128 3.382.192 1.439.064 2.758.096 3.957.096 1.247 0 2.47-.032 3.67-.096a98.946 98.946 0 0 0 3.021-.192ZM303.203 1.632c1.007.064 2.326.128 3.957.192 1.631.064 3.238.096 4.821.096 2.11 0 4.125-.032 6.044-.096a148.52 148.52 0 0 1 4.101-.096c4.796 0 8.394 1.248 10.792 3.744 2.446 2.432 3.669 5.568 3.669 9.408 0 2.816-.767 5.504-2.302 8.064-1.487 2.496-4.125 4.416-7.914 5.76v.192c3.597.576 6.403 1.664 8.418 3.264 2.062 1.6 3.501 3.456 4.317 5.568a17.985 17.985 0 0 1 1.223 6.528c0 4.608-1.463 8.384-4.389 11.328-2.926 2.944-6.979 4.416-12.159 4.416-1.008 0-2.519-.032-4.533-.096-1.967-.128-4.341-.192-7.123-.192-1.679 0-3.334.032-4.965.096-1.631 0-2.95.064-3.957.192v-1.92c1.631-.128 2.854-.384 3.669-.768.864-.384 1.439-1.152 1.727-2.304.288-1.152.432-2.88.432-5.184V11.808c0-2.368-.144-4.128-.432-5.28-.288-1.152-.863-1.92-1.727-2.304-.815-.384-2.038-.608-3.669-.672v-1.92Zm17.124 1.92c-1.919 0-3.166.544-3.741 1.632-.576 1.088-.864 3.296-.864 6.624v38.016c0 2.24.12 3.936.36 5.088.24 1.152.695 1.92 1.367 2.304.672.384 1.655.576 2.95.576 4.461 0 7.698-1.184 9.713-3.552 2.015-2.432 3.022-5.888 3.022-10.368 0-4.352-.935-7.68-2.806-9.984-1.871-2.368-4.965-3.552-9.282-3.552h-6.691V28.704h5.468c2.638 0 4.653-.544 6.044-1.632 1.439-1.152 2.422-2.688 2.95-4.608.576-1.984.863-4.16.863-6.528 0-4.032-.719-7.104-2.158-9.216-1.439-2.112-3.837-3.168-7.195-3.168ZM377.579 1.632a137.242 137.242 0 0 0-.432 5.952 190.24 190.24 0 0 0-.072 4.416c0 1.152.024 2.272.072 3.36.048 1.024.096 1.888.144 2.592h-1.655c-.336-5.312-1.175-8.992-2.518-11.04-1.295-2.048-3.43-3.072-6.404-3.072h-5.252c-1.631 0-2.878.192-3.741.576-.816.32-1.367 1.056-1.655 2.208-.288 1.088-.432 2.816-.432 5.184v38.016c0 2.304.144 4.032.432 5.184.288 1.152.839 1.92 1.655 2.304.863.32 2.11.48 3.741.48h5.252c2.351 0 4.221-.48 5.612-1.44 1.439-1.024 2.519-2.72 3.238-5.088.768-2.368 1.271-5.536 1.511-9.504h1.655c-.144 1.728-.216 4.032-.216 6.912 0 1.088.024 2.688.072 4.8.096 2.112.24 4.288.432 6.528a146.838 146.838 0 0 0-7.915-.192c-2.926-.064-5.54-.096-7.842-.096h-5.54c-2.303 0-4.749.032-7.339.096-2.542 0-4.965.064-7.267.192v-1.92c1.631-.128 2.854-.384 3.67-.768.863-.384 1.438-1.152 1.726-2.304.288-1.152.432-2.88.432-5.184V11.808c0-2.368-.144-4.096-.432-5.184-.288-1.152-.863-1.92-1.726-2.304-.816-.448-2.039-.704-3.67-.768v-1.92c2.302.064 4.725.128 7.267.192 2.59.064 5.036.096 7.339.096h12.663c2.686-.064 5.084-.16 7.195-.288Zm-10.433 28.032v1.92h-13.67v-1.92h13.67Zm2.087-9.792c-.192 2.944-.288 5.152-.288 6.624.048 1.472.072 2.848.072 4.128 0 1.28.024 2.656.072 4.128.048 1.472.168 3.68.359 6.624h-1.654a34.647 34.647 0 0 0-.72-4.608c-.336-1.472-.911-2.688-1.727-3.648-.815-1.024-2.062-1.536-3.741-1.536v-1.92c1.679 0 2.902-.576 3.669-1.728.816-1.152 1.367-2.496 1.655-4.032.288-1.536.504-2.88.648-4.032h1.655ZM383.027 1.632c1.007.064 2.326.128 3.957.192 1.631.064 3.238.096 4.821.096 2.11 0 4.125-.032 6.044-.096a148.52 148.52 0 0 1 4.101-.096c5.564 0 9.713 1.376 12.447 4.128 2.782 2.752 4.173 6.208 4.173 10.368 0 1.728-.288 3.52-.863 5.376-.528 1.792-1.439 3.488-2.735 5.088-1.295 1.6-3.069 2.944-5.324 4.032-2.254 1.088-5.108 1.728-8.562 1.92l-6.907.384v-1.92h6.188c3.022 0 5.324-.608 6.907-1.824 1.583-1.216 2.662-2.88 3.238-4.992.575-2.112.863-4.448.863-7.008 0-4.48-.839-7.872-2.518-10.176-1.679-2.368-4.581-3.552-8.706-3.552-1.919 0-3.166.544-3.741 1.632-.576 1.088-.864 3.296-.864 6.624v38.016c0 2.304.144 4.032.432 5.184.288 1.152.839 1.92 1.655 2.304.863.384 2.11.64 3.741.768V60c-1.103-.128-2.494-.192-4.173-.192a126.62 126.62 0 0 0-4.964-.096c-1.871 0-3.622.032-5.253.096-1.631 0-2.95.064-3.957.192v-1.92c1.631-.128 2.854-.384 3.67-.768.863-.384 1.439-1.152 1.726-2.304.288-1.152.432-2.88.432-5.184V11.808c0-2.368-.144-4.128-.432-5.28-.287-1.152-.863-1.92-1.726-2.304-.816-.384-2.039-.608-3.67-.672v-1.92Zm11.944 30.24c2.59.128 4.556.224 5.899.288 1.391.064 2.495.128 3.31.192.816 0 1.655.096 2.518.288 2.351.448 4.317 1.408 5.9 2.88 1.583 1.472 2.686 4 3.31 7.584l1.583 8.736c.383 2.24.791 3.84 1.223 4.8.479.896 1.079 1.344 1.799 1.344.671 0 1.343-.32 2.014-.96a15.757 15.757 0 0 0 1.943-2.304l1.007 1.248c-.863 1.6-1.871 2.912-3.022 3.936-1.151.96-2.59 1.44-4.317 1.44-2.35 0-4.077-.736-5.18-2.208a13.22 13.22 0 0 1-2.231-5.088l-2.23-12c-.671-3.776-1.727-6.208-3.166-7.296-1.391-1.152-3.285-1.728-5.684-1.728h-4.676v-1.152ZM447.07.288c2.015 0 3.717.288 5.108.864a12.501 12.501 0 0 1 3.67 2.304 39.336 39.336 0 0 1 3.022 3.072c.959 1.024 1.679 1.216 2.158.576.528-.704.888-2.528 1.079-5.472h1.655a251.393 251.393 0 0 0-.216 7.488 753.068 753.068 0 0 0-.072 11.712h-1.654a56.208 56.208 0 0 0-1.295-6.048c-.528-1.984-1.295-3.744-2.303-5.28-1.391-2.176-2.95-3.968-4.676-5.376-1.727-1.408-3.934-2.112-6.62-2.112-2.878 0-5.372 1.184-7.482 3.552-2.111 2.304-3.742 5.632-4.893 9.984-1.151 4.288-1.727 9.408-1.727 15.36 0 9.984 1.367 17.248 4.101 21.792 2.734 4.48 6.716 6.72 11.944 6.72 1.103 0 2.11-.064 3.022-.192a14.21 14.21 0 0 0 2.518-.576c.863-.32 1.439-.736 1.727-1.248.335-.576.503-1.376.503-2.4v-8.256c0-2.624-.192-4.576-.575-5.856-.336-1.28-1.032-2.144-2.087-2.592-1.055-.448-2.59-.704-4.605-.768v-1.92c1.296.064 2.902.128 4.821.192 1.919.064 3.693.096 5.324.096 1.583 0 2.998-.032 4.245-.096 1.295-.064 2.375-.128 3.238-.192v1.92c-1.007.064-1.775.288-2.302.672-.528.384-.888 1.152-1.08 2.304-.191 1.152-.287 2.912-.287 5.28V60h-1.439c-.048-.704-.144-1.248-.288-1.632-.144-.448-.408-.672-.792-.672-.335 0-.863.224-1.582.672-.672.384-1.2.672-1.583.864-.912.448-2.231.896-3.958 1.344-1.678.512-3.501.768-5.468.768-4.796 0-8.897-1.152-12.303-3.456-3.358-2.368-5.924-5.728-7.699-10.08-1.726-4.416-2.59-9.696-2.59-15.84 0-6.528.912-12.16 2.734-16.896 1.823-4.736 4.341-8.384 7.555-10.944 3.262-2.56 6.979-3.84 11.152-3.84Z"/></svg>